<?xml version="1.0" encoding="UTF-8" standalone="no"?><svg xmlns="http://www.w3.org/2000/svg" xmlns:xlink="http://www.w3.org/1999/xlink" contentScriptType="application/ecmascript" contentStyleType="text/css" height="702px" preserveAspectRatio="none" style="width:493px;height:702px;" version="1.1" viewBox="0 0 493 702" width="493px" zoomAndPan="magnify"><defs><filter height="300%" id="f6s9yvssevrz1" width="300%" x="-1" y="-1"><feGaussianBlur result="blurOut" stdDeviation="2.0"/><feColorMatrix in="blurOut" result="blurOut2" type="matrix" values="0 0 0 0 0 0 0 0 0 0 0 0 0 0 0 0 0 0 .4 0"/><feOffset dx="4.0" dy="4.0" in="blurOut2" result="blurOut3"/><feBlend in="SourceGraphic" in2="blurOut3" mode="normal"/></filter></defs><g><text fill="#000000" font-family="sans-serif" font-size="18" lengthAdjust="spacingAndGlyphs" textLength="180" x="160.5" y="17.4023">Diagrama de Classes</text><!--class BBox--><rect fill="#FEFECE" filter="url(#f6s9yvssevrz1)" height="125.7305" id="BBox" style="stroke: #A80036; stroke-width: 1.5;" width="60" x="110.5" y="543.1992"/><ellipse cx="125.5" cy="559.1992" fill="#ADD1B2" rx="11" ry="11" style="stroke: #A80036; stroke-width: 1.0;"/><path d="M127.9731,565.3423 Q127.3921,565.6411 126.7529,565.7905 Q126.1138,565.9399 125.4082,565.9399 Q122.9014,565.9399 121.5815,564.2881 Q120.2617,562.6362 120.2617,559.5151 Q120.2617,556.3857 121.5815,554.7339 Q122.9014,553.082 125.4082,553.082 Q126.1138,553.082 126.7612,553.2314 Q127.4087,553.3809 127.9731,553.6797 L127.9731,556.4023 Q127.3423,555.8213 126.7488,555.5515 Q126.1553,555.2817 125.5244,555.2817 Q124.1797,555.2817 123.4949,556.3484 Q122.8101,557.415 122.8101,559.5151 Q122.8101,561.6069 123.4949,562.6736 Q124.1797,563.7402 125.5244,563.7402 Q126.1553,563.7402 126.7488,563.4705 Q127.3423,563.2007 127.9731,562.6196 Z "/><text fill="#000000" font-family="sans-serif" font-size="12" lengthAdjust="spacingAndGlyphs" textLength="28" x="139.5" y="563.7344">BBox</text><line style="stroke: #A80036; stroke-width: 1.5;" x1="111.5" x2="169.5" y1="575.1992" y2="575.1992"/><text fill="#000000" font-family="sans-serif" font-size="11" lengthAdjust="spacingAndGlyphs" textLength="26" x="116.5" y="589.834">xMin</text><text fill="#000000" font-family="sans-serif" font-size="11" lengthAdjust="spacingAndGlyphs" textLength="29" x="116.5" y="602.7891">xMax</text><text fill="#000000" font-family="sans-serif" font-size="11" lengthAdjust="spacingAndGlyphs" textLength="25" x="116.5" y="615.7441">yMin</text><text fill="#000000" font-family="sans-serif" font-size="11" lengthAdjust="spacingAndGlyphs" textLength="28" x="116.5" y="628.6992">yMax</text><text fill="#000000" font-family="sans-serif" font-size="11" lengthAdjust="spacingAndGlyphs" textLength="25" x="116.5" y="641.6543">zMin</text><text fill="#000000" font-family="sans-serif" font-size="11" lengthAdjust="spacingAndGlyphs" textLength="28" x="116.5" y="654.6094">zMax</text><line style="stroke: #A80036; stroke-width: 1.5;" x1="111.5" x2="169.5" y1="660.9297" y2="660.9297"/><!--class Camera--><rect fill="#FEFECE" filter="url(#f6s9yvssevrz1)" height="151.6406" id="Camera" style="stroke: #A80036; stroke-width: 1.5;" width="77" x="6" y="29.1992"/><ellipse cx="21" cy="45.1992" fill="#ADD1B2" rx="11" ry="11" style="stroke: #A80036; stroke-width: 1.0;"/><path d="M23.4731,51.3423 Q22.8921,51.6411 22.2529,51.7905 Q21.6138,51.9399 20.9082,51.9399 Q18.4014,51.9399 17.0815,50.2881 Q15.7617,48.6362 15.7617,45.5151 Q15.7617,42.3857 17.0815,40.7339 Q18.4014,39.082 20.9082,39.082 Q21.6138,39.082 22.2612,39.2314 Q22.9087,39.3809 23.4731,39.6797 L23.4731,42.4023 Q22.8423,41.8213 22.2488,41.5515 Q21.6553,41.2817 21.0244,41.2817 Q19.6797,41.2817 18.9949,42.3484 Q18.3101,43.415 18.3101,45.5151 Q18.3101,47.6069 18.9949,48.6736 Q19.6797,49.7402 21.0244,49.7402 Q21.6553,49.7402 22.2488,49.4705 Q22.8423,49.2007 23.4731,48.6196 Z "/><text fill="#000000" font-family="sans-serif" font-size="12" lengthAdjust="spacingAndGlyphs" textLength="45" x="35" y="49.7344">Camera</text><line style="stroke: #A80036; stroke-width: 1.5;" x1="7" x2="82" y1="61.1992" y2="61.1992"/><text fill="#000000" font-family="sans-serif" font-size="11" lengthAdjust="spacingAndGlyphs" textLength="26" x="12" y="75.834">xMin</text><text fill="#000000" font-family="sans-serif" font-size="11" lengthAdjust="spacingAndGlyphs" textLength="29" x="12" y="88.7891">xMax</text><text fill="#000000" font-family="sans-serif" font-size="11" lengthAdjust="spacingAndGlyphs" textLength="25" x="12" y="101.7441">yMin</text><text fill="#000000" font-family="sans-serif" font-size="11" lengthAdjust="spacingAndGlyphs" textLength="28" x="12" y="114.6992">yMax</text><text fill="#000000" font-family="sans-serif" font-size="11" lengthAdjust="spacingAndGlyphs" textLength="24" x="12" y="127.6543">near</text><text fill="#000000" font-family="sans-serif" font-size="11" lengthAdjust="spacingAndGlyphs" textLength="15" x="12" y="140.6094">far</text><line style="stroke: #A80036; stroke-width: 1.5;" x1="7" x2="82" y1="146.9297" y2="146.9297"/><text fill="#000000" font-family="sans-serif" font-size="11" lengthAdjust="spacingAndGlyphs" textLength="38" x="12" y="161.5645">zoom()</text><text fill="#000000" font-family="sans-serif" font-size="11" lengthAdjust="spacingAndGlyphs" textLength="28" x="12" y="174.5195">pan()</text><!--class Matematica--><rect fill="#FEFECE" filter="url(#f6s9yvssevrz1)" height="73.9102" id="Matematica" style="stroke: #A80036; stroke-width: 1.5;" width="178" x="304.5" y="68.1992"/><ellipse cx="356.25" cy="84.1992" fill="#ADD1B2" rx="11" ry="11" style="stroke: #A80036; stroke-width: 1.0;"/><path d="M358.7231,90.3423 Q358.1421,90.6411 357.5029,90.7905 Q356.8638,90.9399 356.1582,90.9399 Q353.6514,90.9399 352.3315,89.2881 Q351.0117,87.6362 351.0117,84.5151 Q351.0117,81.3857 352.3315,79.7339 Q353.6514,78.082 356.1582,78.082 Q356.8638,78.082 357.5112,78.2314 Q358.1587,78.3809 358.7231,78.6797 L358.7231,81.4023 Q358.0923,80.8213 357.4988,80.5515 Q356.9053,80.2817 356.2744,80.2817 Q354.9297,80.2817 354.2449,81.3484 Q353.5601,82.415 353.5601,84.5151 Q353.5601,86.6069 354.2449,87.6736 Q354.9297,88.7402 356.2744,88.7402 Q356.9053,88.7402 357.4988,88.4705 Q358.0923,88.2007 358.7231,87.6196 Z "/><text fill="#000000" font-family="sans-serif" font-size="12" lengthAdjust="spacingAndGlyphs" textLength="66" x="376.75" y="88.7344">Matematica</text><line style="stroke: #A80036; stroke-width: 1.5;" x1="305.5" x2="481.5" y1="100.1992" y2="100.1992"/><line style="stroke: #A80036; stroke-width: 1.5;" x1="305.5" x2="481.5" y1="108.1992" y2="108.1992"/><text fill="#000000" font-family="sans-serif" font-size="11" lengthAdjust="spacingAndGlyphs" textLength="147" x="310.5" y="122.834">pto ptoCirculo(angulo,raio)</text><text fill="#000000" font-family="sans-serif" font-size="11" lengthAdjust="spacingAndGlyphs" textLength="166" x="310.5" y="135.7891">valor ptoCirculoSimétrico(raio)</text><!--class Ponto4D--><rect fill="#FEFECE" filter="url(#f6s9yvssevrz1)" height="99.8203" id="Ponto4D" style="stroke: #A80036; stroke-width: 1.5;" width="81" x="206" y="556.1992"/><ellipse cx="221" cy="572.1992" fill="#ADD1B2" rx="11" ry="11" style="stroke: #A80036; stroke-width: 1.0;"/><path d="M223.4731,578.3423 Q222.8921,578.6411 222.2529,578.7905 Q221.6138,578.9399 220.9082,578.9399 Q218.4014,578.9399 217.0815,577.2881 Q215.7617,575.6362 215.7617,572.5151 Q215.7617,569.3857 217.0815,567.7339 Q218.4014,566.082 220.9082,566.082 Q221.6138,566.082 222.2612,566.2314 Q222.9087,566.3809 223.4731,566.6797 L223.4731,569.4023 Q222.8423,568.8213 222.2488,568.5515 Q221.6553,568.2817 221.0244,568.2817 Q219.6797,568.2817 218.9949,569.3484 Q218.3101,570.415 218.3101,572.5151 Q218.3101,574.6069 218.9949,575.6736 Q219.6797,576.7402 221.0244,576.7402 Q221.6553,576.7402 222.2488,576.4705 Q222.8423,576.2007 223.4731,575.6196 Z "/><text fill="#000000" font-family="sans-serif" font-size="12" lengthAdjust="spacingAndGlyphs" textLength="49" x="235" y="576.7344">Ponto4D</text><line style="stroke: #A80036; stroke-width: 1.5;" x1="207" x2="286" y1="588.1992" y2="588.1992"/><text fill="#000000" font-family="sans-serif" font-size="11" lengthAdjust="spacingAndGlyphs" textLength="7" x="212" y="602.834">x</text><text fill="#000000" font-family="sans-serif" font-size="11" lengthAdjust="spacingAndGlyphs" textLength="6" x="212" y="615.7891">y</text><text fill="#000000" font-family="sans-serif" font-size="11" lengthAdjust="spacingAndGlyphs" textLength="6" x="212" y="628.7441">z</text><text fill="#000000" font-family="sans-serif" font-size="11" lengthAdjust="spacingAndGlyphs" textLength="8" x="212" y="641.6992">w</text><line style="stroke: #A80036; stroke-width: 1.5;" x1="207" x2="286" y1="648.0195" y2="648.0195"/><!--class Transformacao4D--><rect fill="#FEFECE" filter="url(#f6s9yvssevrz1)" height="242.3262" id="Transformacao4D" style="stroke: #A80036; stroke-width: 1.5;" width="162" x="279.5" y="241.1992"/><ellipse cx="306.2" cy="257.1992" fill="#ADD1B2" rx="11" ry="11" style="stroke: #A80036; stroke-width: 1.0;"/><path d="M308.6731,263.3423 Q308.0921,263.6411 307.4529,263.7905 Q306.8138,263.9399 306.1082,263.9399 Q303.6014,263.9399 302.2815,262.2881 Q300.9617,260.6362 300.9617,257.5151 Q300.9617,254.3857 302.2815,252.7339 Q303.6014,251.082 306.1082,251.082 Q306.8138,251.082 307.4612,251.2314 Q308.1087,251.3809 308.6731,251.6797 L308.6731,254.4023 Q308.0423,253.8213 307.4488,253.5515 Q306.8553,253.2817 306.2244,253.2817 Q304.8797,253.2817 304.1949,254.3484 Q303.5101,255.415 303.5101,257.5151 Q303.5101,259.6069 304.1949,260.6736 Q304.8797,261.7402 306.2244,261.7402 Q306.8553,261.7402 307.4488,261.4705 Q308.0423,261.2007 308.6731,260.6196 Z "/><text fill="#000000" font-family="sans-serif" font-size="12" lengthAdjust="spacingAndGlyphs" textLength="104" x="322.8" y="261.7344">Transformacao4D</text><line style="stroke: #A80036; stroke-width: 1.5;" x1="280.5" x2="440.5" y1="273.1992" y2="273.1992"/><text fill="#000000" font-family="sans-serif" font-size="11" lengthAdjust="spacingAndGlyphs" textLength="63" x="285.5" y="287.834">matriz[4x4]</text><text fill="#000000" font-family="sans-serif" font-size="11" lengthAdjust="spacingAndGlyphs" textLength="73" x="285.5" y="300.7891">DEG_TO_RAD</text><line style="stroke: #A80036; stroke-width: 1.5;" x1="280.5" x2="440.5" y1="307.1094" y2="307.1094"/><text fill="#000000" font-family="sans-serif" font-size="11" lengthAdjust="spacingAndGlyphs" textLength="104" x="285.5" y="321.7441">atribuirIdentidade()</text><text fill="#000000" font-family="sans-serif" font-size="11" lengthAdjust="spacingAndGlyphs" textLength="144" x="285.5" y="334.6992">atribuirTranslacao(tx,ty,tz)</text><text fill="#000000" font-family="sans-serif" font-size="11" lengthAdjust="spacingAndGlyphs" textLength="126" x="285.5" y="347.6543">atribuirEscala(sX,sY,sZ)</text><text fill="#000000" font-family="sans-serif" font-size="11" lengthAdjust="spacingAndGlyphs" textLength="138" x="285.5" y="360.6094">atribuirRotacaoX(radians)</text><text fill="#000000" font-family="sans-serif" font-size="11" lengthAdjust="spacingAndGlyphs" textLength="138" x="285.5" y="373.5645">atribuirRotacaoY(radians)</text><text fill="#000000" font-family="sans-serif" font-size="11" lengthAdjust="spacingAndGlyphs" textLength="138" x="285.5" y="386.5195">atribuirRotacaoZ(radians)</text><text fill="#000000" font-family="sans-serif" font-size="11" lengthAdjust="spacingAndGlyphs" textLength="107" x="285.5" y="399.4746">transformPoint(pto)</text><text fill="#000000" font-family="sans-serif" font-size="11" lengthAdjust="spacingAndGlyphs" textLength="100" x="285.5" y="412.4297">transformMatrix(t)</text><text fill="#000000" font-family="sans-serif" font-size="11" lengthAdjust="spacingAndGlyphs" textLength="150" x="285.5" y="425.3848">elemento GetElement(index)</text><text fill="#000000" font-family="sans-serif" font-size="11" lengthAdjust="spacingAndGlyphs" textLength="127" x="285.5" y="438.3398">SetElement(index,value)</text><text fill="#000000" font-family="sans-serif" font-size="11" lengthAdjust="spacingAndGlyphs" textLength="110" x="285.5" y="451.2949">elemento[] GetDate()</text><text fill="#000000" font-family="sans-serif" font-size="11" lengthAdjust="spacingAndGlyphs" textLength="79" x="285.5" y="464.25">SetData(data[])</text><text fill="#000000" font-family="sans-serif" font-size="11" lengthAdjust="spacingAndGlyphs" textLength="70" x="285.5" y="477.2051">exibeMatriz()</text><!--class Mundo--><rect fill="#FEFECE" filter="url(#f6s9yvssevrz1)" height="99.8203" id="Mundo" style="stroke: #A80036; stroke-width: 1.5;" width="151" x="118" y="55.1992"/><ellipse cx="169.75" cy="71.1992" fill="#ADD1B2" rx="11" ry="11" style="stroke: #A80036; stroke-width: 1.0;"/><path d="M172.2231,77.3423 Q171.6421,77.6411 171.0029,77.7905 Q170.3638,77.9399 169.6582,77.9399 Q167.1514,77.9399 165.8315,76.2881 Q164.5117,74.6362 164.5117,71.5151 Q164.5117,68.3857 165.8315,66.7339 Q167.1514,65.082 169.6582,65.082 Q170.3638,65.082 171.0112,65.2314 Q171.6587,65.3809 172.2231,65.6797 L172.2231,68.4023 Q171.5923,67.8213 170.9988,67.5515 Q170.4053,67.2817 169.7744,67.2817 Q168.4297,67.2817 167.7449,68.3484 Q167.0601,69.415 167.0601,71.5151 Q167.0601,73.6069 167.7449,74.6736 Q168.4297,75.7402 169.7744,75.7402 Q170.4053,75.7402 170.9988,75.4705 Q171.5923,75.2007 172.2231,74.6196 Z "/><text fill="#000000" font-family="sans-serif" font-size="12" lengthAdjust="spacingAndGlyphs" textLength="39" x="190.25" y="75.7344">Mundo</text><line style="stroke: #A80036; stroke-width: 1.5;" x1="119" x2="268" y1="87.1992" y2="87.1992"/><text fill="#000000" font-family="sans-serif" font-size="11" lengthAdjust="spacingAndGlyphs" textLength="41" x="124" y="101.834">Camera</text><text fill="#000000" font-family="sans-serif" font-size="11" lengthAdjust="spacingAndGlyphs" textLength="44" x="124" y="114.7891">Objeto[]</text><text fill="#000000" font-family="sans-serif" font-size="11" lengthAdjust="spacingAndGlyphs" textLength="98" x="124" y="127.7441">objetoSelecionado</text><line style="stroke: #A80036; stroke-width: 1.5;" x1="119" x2="268" y1="134.0645" y2="134.0645"/><text fill="#000000" font-family="sans-serif" font-size="11" lengthAdjust="spacingAndGlyphs" textLength="139" x="124" y="148.6992">pegarObjetoSelecionado()</text><!--class Objeto--><rect fill="#FEFECE" filter="url(#f6s9yvssevrz1)" height="125.7305" id="Objeto" style="stroke: #A80036; stroke-width: 1.5;" width="101" x="143" y="299.1992"/><ellipse cx="171.5" cy="315.1992" fill="#ADD1B2" rx="11" ry="11" style="stroke: #A80036; stroke-width: 1.0;"/><path d="M173.9731,321.3423 Q173.3921,321.6411 172.7529,321.7905 Q172.1138,321.9399 171.4082,321.9399 Q168.9014,321.9399 167.5815,320.2881 Q166.2617,318.6362 166.2617,315.5151 Q166.2617,312.3857 167.5815,310.7339 Q168.9014,309.082 171.4082,309.082 Q172.1138,309.082 172.7612,309.2314 Q173.4087,309.3809 173.9731,309.6797 L173.9731,312.4023 Q173.3423,311.8213 172.7488,311.5515 Q172.1553,311.2817 171.5244,311.2817 Q170.1797,311.2817 169.4949,312.3484 Q168.8101,313.415 168.8101,315.5151 Q168.8101,317.6069 169.4949,318.6736 Q170.1797,319.7402 171.5244,319.7402 Q172.1553,319.7402 172.7488,319.4705 Q173.3423,319.2007 173.9731,318.6196 Z "/><text fill="#000000" font-family="sans-serif" font-size="12" lengthAdjust="spacingAndGlyphs" textLength="39" x="188.5" y="319.7344">Objeto</text><line style="stroke: #A80036; stroke-width: 1.5;" x1="144" x2="243" y1="331.1992" y2="331.1992"/><text fill="#000000" font-family="sans-serif" font-size="11" lengthAdjust="spacingAndGlyphs" textLength="18" x="149" y="345.834">cor</text><text fill="#000000" font-family="sans-serif" font-size="11" lengthAdjust="spacingAndGlyphs" textLength="47" x="149" y="358.7891">primitiva</text><text fill="#000000" font-family="sans-serif" font-size="11" lengthAdjust="spacingAndGlyphs" textLength="54" x="149" y="371.7441">Ponto4D[]</text><text fill="#000000" font-family="sans-serif" font-size="11" lengthAdjust="spacingAndGlyphs" textLength="44" x="149" y="384.6992">Objeto[]</text><line style="stroke: #A80036; stroke-width: 1.5;" x1="144" x2="243" y1="391.0195" y2="391.0195"/><text fill="#000000" font-family="sans-serif" font-size="11" lengthAdjust="spacingAndGlyphs" textLength="63" x="149" y="405.6543">mudarCor()</text><text fill="#000000" font-family="sans-serif" font-size="11" lengthAdjust="spacingAndGlyphs" textLength="89" x="149" y="418.6094">mudarPrimitiva()</text><!--class Circulo--><rect fill="#FEFECE" filter="url(#f6s9yvssevrz1)" height="73.9102" id="Circulo" style="stroke: #A80036; stroke-width: 1.5;" width="71" x="37" y="325.1992"/><ellipse cx="52" cy="341.1992" fill="#ADD1B2" rx="11" ry="11" style="stroke: #A80036; stroke-width: 1.0;"/><path d="M54.4731,347.3423 Q53.8921,347.6411 53.2529,347.7905 Q52.6138,347.9399 51.9082,347.9399 Q49.4014,347.9399 48.0815,346.2881 Q46.7617,344.6362 46.7617,341.5151 Q46.7617,338.3857 48.0815,336.7339 Q49.4014,335.082 51.9082,335.082 Q52.6138,335.082 53.2612,335.2314 Q53.9087,335.3809 54.4731,335.6797 L54.4731,338.4023 Q53.8423,337.8213 53.2488,337.5515 Q52.6553,337.2817 52.0244,337.2817 Q50.6797,337.2817 49.9949,338.3484 Q49.3101,339.415 49.3101,341.5151 Q49.3101,343.6069 49.9949,344.6736 Q50.6797,345.7402 52.0244,345.7402 Q52.6553,345.7402 53.2488,345.4705 Q53.8423,345.2007 54.4731,344.6196 Z "/><text fill="#000000" font-family="sans-serif" font-size="12" lengthAdjust="spacingAndGlyphs" textLength="39" x="66" y="345.7344">Circulo</text><line style="stroke: #A80036; stroke-width: 1.5;" x1="38" x2="107" y1="357.1992" y2="357.1992"/><text fill="#000000" font-family="sans-serif" font-size="11" lengthAdjust="spacingAndGlyphs" textLength="23" x="43" y="371.834">Raio</text><text fill="#000000" font-family="sans-serif" font-size="11" lengthAdjust="spacingAndGlyphs" textLength="55" x="43" y="384.7891">ptoCentro</text><line style="stroke: #A80036; stroke-width: 1.5;" x1="38" x2="107" y1="391.1094" y2="391.1094"/><!--link Camera to Mundo--><path d="M88.3213,105.1992 C98.1049,105.1992 107.8886,105.1992 117.6722,105.1992 " fill="none" id="Camera-Mundo" style="stroke: #A80036; stroke-width: 1.0;"/><polygon fill="#A80036" points="83.2051,105.1992,92.2051,109.1992,88.2051,105.1992,92.2051,101.1992,83.2051,105.1992" style="stroke: #A80036; stroke-width: 1.0;"/><!--link Mundo to Objeto--><path d="M193.5,155.3615 C193.5,194.8058 193.5,250.1749 193.5,293.7006 " fill="none" id="Mundo-Objeto" style="stroke: #A80036; stroke-width: 1.0;"/><polygon fill="#A80036" points="193.5,298.948,197.5,289.948,193.5,293.948,189.5,289.948,193.5,298.948" style="stroke: #A80036; stroke-width: 1.0;"/><!--link Objeto to Transformacao4D--><path d="M244.0566,362.1992 C253.9983,362.1992 263.94,362.1992 273.8817,362.1992 " fill="none" id="Objeto-Transformacao4D" style="stroke: #A80036; stroke-width: 1.0;"/><polygon fill="#A80036" points="279.0806,362.1992,270.0806,358.1992,274.0806,362.1992,270.0806,366.1992,279.0806,362.1992" style="stroke: #A80036; stroke-width: 1.0;"/><!--link Objeto to BBox--><path d="M179.7823,425.3526 C172.2985,459.8063 163.0262,502.4937 155.3698,537.7422 " fill="none" id="Objeto-BBox" style="stroke: #A80036; stroke-width: 1.0;"/><polygon fill="#A80036" points="154.2522,542.887,160.0716,534.9413,155.3136,538.001,152.2539,533.243,154.2522,542.887" style="stroke: #A80036; stroke-width: 1.0;"/><!--link Objeto to Ponto4D--><path d="M207.2177,425.3526 C215.6715,464.2718 226.4074,513.6975 234.5185,551.039 " fill="none" id="Objeto-Ponto4D" style="stroke: #A80036; stroke-width: 1.0;"/><polygon fill="#A80036" points="235.5947,555.9935,237.5933,546.3496,234.5334,551.1074,229.7756,548.0476,235.5947,555.9935" style="stroke: #A80036; stroke-width: 1.0;"/><!--link Circulo to Objeto--><path d="M128.6736,362.1992 C133.444,362.1992 138.2145,362.1992 142.9849,362.1992 " fill="none" id="Circulo-Objeto" style="stroke: #A80036; stroke-width: 1.0;"/><polygon fill="none" points="128.4219,369.1991,108.4219,362.1992,128.4218,355.1991,128.4219,369.1991" style="stroke: #A80036; stroke-width: 1.0;"/><text fill="#888888" font-family="sans-serif" font-size="10" lengthAdjust="spacingAndGlyphs" textLength="99" x="201" y="688.8672">Computação Gráfica</text><!--
@startuml

title Diagrama de Classes
footer Computação Gráfica


BBox : xMin
BBox : xMax
BBox : yMin
BBox : yMax
BBox : zMin
BBox : zMax

Camera : xMin
Camera : xMax
Camera : yMin
Camera : yMax
Camera : near  
Camera : far   
Camera : zoom()
Camera : pan()

Matematica : pto ptoCirculo(angulo,raio)
Matematica : valor ptoCirculoSimétrico(raio)

Ponto4D : x
Ponto4D : y
Ponto4D : z
Ponto4D : w

Transformacao4D : matriz[4x4]
Transformacao4D : DEG_TO_RAD
Transformacao4D : atribuirIdentidade()
Transformacao4D : atribuirTranslacao(tx,ty,tz)
Transformacao4D : atribuirEscala(sX,sY,sZ)
Transformacao4D : atribuirRotacaoX(radians)
Transformacao4D : atribuirRotacaoY(radians)
Transformacao4D : atribuirRotacaoZ(radians)
Transformacao4D : transformPoint(pto)
Transformacao4D : transformMatrix(t)
Transformacao4D : elemento GetElement(index)
Transformacao4D : SetElement(index,value)
Transformacao4D : elemento[] GetDate()
Transformacao4D : SetData(data[])
Transformacao4D : exibeMatriz()


Mundo : Camera
Mundo : Objeto[]
Mundo : objetoSelecionado
Mundo : pegarObjetoSelecionado()
Camera <-left- Mundo

Objeto : cor
Objeto : mudarCor()
Objeto : primitiva
Objeto : mudarPrimitiva()
Objeto : Ponto4D[]
Objeto : Objeto[]
Objeto <-down- Mundo
Transformacao4D <-right- Objeto
BBox <-down- Objeto
Ponto4D <-down- Objeto

Circulo : Raio
Circulo : ptoCentro
Circulo <|- Objeto

@enduml

PlantUML version 1.2019.06(Fri May 24 14:10:25 BRT 2019)
(GPL source distribution)
Java Runtime: Java(TM) SE Runtime Environment
JVM: Java HotSpot(TM) 64-Bit Server VM
Java Version: 1.8.0_144-b01
Operating System: Mac OS X
OS Version: 10.14.5
Default Encoding: UTF-8
Language: en
Country: US
--></g></svg>