<?xml version="1.0" encoding="UTF-8" standalone="no"?><svg xmlns="http://www.w3.org/2000/svg" xmlns:xlink="http://www.w3.org/1999/xlink" contentScriptType="application/ecmascript" contentStyleType="text/css" height="304px" preserveAspectRatio="none" style="width:280px;height:304px;" version="1.1" viewBox="0 0 280 304" width="280px" zoomAndPan="magnify"><defs><filter height="300%" id="f41f68u563a97" width="300%" x="-1" y="-1"><feGaussianBlur result="blurOut" stdDeviation="2.0"/><feColorMatrix in="blurOut" result="blurOut2" type="matrix" values="0 0 0 0 0 0 0 0 0 0 0 0 0 0 0 0 0 0 .4 0"/><feOffset dx="4.0" dy="4.0" in="blurOut2" result="blurOut3"/><feBlend in="SourceGraphic" in2="blurOut3" mode="normal"/></filter></defs><g><!--class Mundo--><rect fill="#FEFECE" filter="url(#f41f68u563a97)" height="99.8203" id="Mundo" style="stroke: #A80036; stroke-width: 1.5;" width="151" x="118" y="21"/><ellipse cx="169.75" cy="37" fill="#ADD1B2" rx="11" ry="11" style="stroke: #A80036; stroke-width: 1.0;"/><path d="M172.2231,43.1431 Q171.6421,43.4419 171.0029,43.5913 Q170.3638,43.7407 169.6582,43.7407 Q167.1514,43.7407 165.8315,42.0889 Q164.5117,40.437 164.5117,37.3159 Q164.5117,34.1865 165.8315,32.5347 Q167.1514,30.8828 169.6582,30.8828 Q170.3638,30.8828 171.0112,31.0322 Q171.6587,31.1816 172.2231,31.4805 L172.2231,34.2031 Q171.5923,33.6221 170.9988,33.3523 Q170.4053,33.0825 169.7744,33.0825 Q168.4297,33.0825 167.7449,34.1492 Q167.0601,35.2158 167.0601,37.3159 Q167.0601,39.4077 167.7449,40.4744 Q168.4297,41.541 169.7744,41.541 Q170.4053,41.541 170.9988,41.2712 Q171.5923,41.0015 172.2231,40.4204 Z "/><text fill="#000000" font-family="sans-serif" font-size="12" lengthAdjust="spacingAndGlyphs" textLength="39" x="190.25" y="41.5352">Mundo</text><line style="stroke: #A80036; stroke-width: 1.5;" x1="119" x2="268" y1="53" y2="53"/><text fill="#000000" font-family="sans-serif" font-size="11" lengthAdjust="spacingAndGlyphs" textLength="41" x="124" y="67.6348">Camera</text><text fill="#000000" font-family="sans-serif" font-size="11" lengthAdjust="spacingAndGlyphs" textLength="44" x="124" y="80.5898">Objeto[]</text><text fill="#000000" font-family="sans-serif" font-size="11" lengthAdjust="spacingAndGlyphs" textLength="98" x="124" y="93.5449">objetoSelecionado</text><line style="stroke: #A80036; stroke-width: 1.5;" x1="119" x2="268" y1="99.8652" y2="99.8652"/><text fill="#000000" font-family="sans-serif" font-size="11" lengthAdjust="spacingAndGlyphs" textLength="139" x="124" y="114.5">pegarObjetoSelecionado()</text><!--class Objeto--><rect fill="#FEFECE" filter="url(#f41f68u563a97)" height="99.8203" id="Objeto" style="stroke: #A80036; stroke-width: 1.5;" width="101" x="143" y="194"/><ellipse cx="171.5" cy="210" fill="#ADD1B2" rx="11" ry="11" style="stroke: #A80036; stroke-width: 1.0;"/><path d="M173.9731,216.1431 Q173.3921,216.4419 172.7529,216.5913 Q172.1138,216.7407 171.4082,216.7407 Q168.9014,216.7407 167.5815,215.0889 Q166.2617,213.437 166.2617,210.3159 Q166.2617,207.1865 167.5815,205.5347 Q168.9014,203.8828 171.4082,203.8828 Q172.1138,203.8828 172.7612,204.0322 Q173.4087,204.1816 173.9731,204.4805 L173.9731,207.2031 Q173.3423,206.6221 172.7488,206.3523 Q172.1553,206.0825 171.5244,206.0825 Q170.1797,206.0825 169.4949,207.1492 Q168.8101,208.2158 168.8101,210.3159 Q168.8101,212.4077 169.4949,213.4744 Q170.1797,214.541 171.5244,214.541 Q172.1553,214.541 172.7488,214.2712 Q173.3423,214.0015 173.9731,213.4204 Z "/><text fill="#000000" font-family="sans-serif" font-size="12" lengthAdjust="spacingAndGlyphs" textLength="39" x="188.5" y="214.5352">Objeto</text><line style="stroke: #A80036; stroke-width: 1.5;" x1="144" x2="243" y1="226" y2="226"/><text fill="#000000" font-family="sans-serif" font-size="11" lengthAdjust="spacingAndGlyphs" textLength="18" x="149" y="240.6348">cor</text><text fill="#000000" font-family="sans-serif" font-size="11" lengthAdjust="spacingAndGlyphs" textLength="47" x="149" y="253.5898">primitiva</text><line style="stroke: #A80036; stroke-width: 1.5;" x1="144" x2="243" y1="259.9102" y2="259.9102"/><text fill="#000000" font-family="sans-serif" font-size="11" lengthAdjust="spacingAndGlyphs" textLength="63" x="149" y="274.5449">mudarCor()</text><text fill="#000000" font-family="sans-serif" font-size="11" lengthAdjust="spacingAndGlyphs" textLength="89" x="149" y="287.5">mudarPrimitiva()</text><!--class Camera--><rect fill="#FEFECE" filter="url(#f41f68u563a97)" height="125.7305" id="Camera" style="stroke: #A80036; stroke-width: 1.5;" width="77" x="6" y="8"/><ellipse cx="21" cy="24" fill="#ADD1B2" rx="11" ry="11" style="stroke: #A80036; stroke-width: 1.0;"/><path d="M23.4731,30.1431 Q22.8921,30.4419 22.2529,30.5913 Q21.6138,30.7407 20.9082,30.7407 Q18.4014,30.7407 17.0815,29.0889 Q15.7617,27.437 15.7617,24.3159 Q15.7617,21.1865 17.0815,19.5347 Q18.4014,17.8828 20.9082,17.8828 Q21.6138,17.8828 22.2612,18.0322 Q22.9087,18.1816 23.4731,18.4805 L23.4731,21.2031 Q22.8423,20.6221 22.2488,20.3523 Q21.6553,20.0825 21.0244,20.0825 Q19.6797,20.0825 18.9949,21.1492 Q18.3101,22.2158 18.3101,24.3159 Q18.3101,26.4077 18.9949,27.4744 Q19.6797,28.541 21.0244,28.541 Q21.6553,28.541 22.2488,28.2712 Q22.8423,28.0015 23.4731,27.4204 Z "/><text fill="#000000" font-family="sans-serif" font-size="12" lengthAdjust="spacingAndGlyphs" textLength="45" x="35" y="28.5352">Camera</text><line style="stroke: #A80036; stroke-width: 1.5;" x1="7" x2="82" y1="40" y2="40"/><text fill="#000000" font-family="sans-serif" font-size="11" lengthAdjust="spacingAndGlyphs" textLength="26" x="12" y="54.6348">xMin</text><text fill="#000000" font-family="sans-serif" font-size="11" lengthAdjust="spacingAndGlyphs" textLength="29" x="12" y="67.5898">xMax</text><text fill="#000000" font-family="sans-serif" font-size="11" lengthAdjust="spacingAndGlyphs" textLength="25" x="12" y="80.5449">yMin</text><text fill="#000000" font-family="sans-serif" font-size="11" lengthAdjust="spacingAndGlyphs" textLength="28" x="12" y="93.5">yMax</text><text fill="#000000" font-family="sans-serif" font-size="11" lengthAdjust="spacingAndGlyphs" textLength="24" x="12" y="106.4551">near</text><text fill="#000000" font-family="sans-serif" font-size="11" lengthAdjust="spacingAndGlyphs" textLength="15" x="12" y="119.4102">far</text><line style="stroke: #A80036; stroke-width: 1.5;" x1="7" x2="82" y1="125.7305" y2="125.7305"/><!--link Mundo to Objeto--><path d="M193.5,121.0388 C193.5,137.4639 193.5,156.0359 193.5,173.6771 " fill="none" id="Mundo-Objeto" style="stroke: #A80036; stroke-width: 1.0;"/><polygon fill="none" points="200.5001,173.7743,193.5,193.7743,186.5001,173.7742,200.5001,173.7743" style="stroke: #A80036; stroke-width: 1.0;"/><!--link Camera to Mundo--><path d="M88.3213,71 C98.1049,71 107.8886,71 117.6722,71 " fill="none" id="Camera-Mundo" style="stroke: #A80036; stroke-width: 1.0;"/><polygon fill="#A80036" points="83.2051,71,92.2051,75,88.2051,71,92.2051,67,83.2051,71" style="stroke: #A80036; stroke-width: 1.0;"/><!--
@startuml

Mundo : Camera
Mundo : Objeto[]
Mundo : objetoSelecionado
Mundo : pegarObjetoSelecionado()

Objeto : cor
Objeto : mudarCor()
Objeto : primitiva
Objeto : mudarPrimitiva()
Objeto <|-up- Mundo

Camera : xMin
Camera : xMax
Camera : yMin
Camera : yMax
Camera : near  
Camera : far   
Camera <- Mundo

@enduml

PlantUML version 1.2019.03(Sun Mar 10 08:04:44 BRT 2019)
(GPL source distribution)
Java Runtime: Java(TM) SE Runtime Environment
JVM: Java HotSpot(TM) 64-Bit Server VM
Java Version: 1.8.0_144-b01
Operating System: Mac OS X
OS Version: 10.14.5
Default Encoding: UTF-8
Language: en
Country: US
--></g></svg>